<?xml version="1.0" encoding="utf-8"?>
<!-- Generator: Adobe Illustrator 21.0.0, SVG Export Plug-In . SVG Version: 6.00 Build 0)  -->
<svg version="1.1" id="Layer_1" xmlns="http://www.w3.org/2000/svg" xmlns:xlink="http://www.w3.org/1999/xlink" x="0px" y="0px"
	 viewBox="0 0 24 39.7" style="enable-background:new 0 0 24 39.7;" xml:space="preserve">
<style type="text/css">
	.st0{fill:#FFFFFF;}
	.st1{fill:#C59C63;}
</style>
<g>
	<rect x="2.4" y="37.8" class="st0" width="19.2" height="1.9"/>
	<path class="st0" d="M12,29.7c-0.3,0-0.5,0-0.8-0.1v6.6h1.5v-6.6C12.5,29.7,12.3,29.7,12,29.7z"/>
	<path class="st0" d="M21.1,17.2c-2.6,0-4.8-1.9-5.3-4.4H8.1c-0.5,2.5-2.7,4.4-5.3,4.4c-0.2,0-0.3,0-0.5,0c1,1.4,2.7,2.3,4.6,2.3h10
		c1.9,0,3.6-0.9,4.6-2.3C21.5,17.2,21.3,17.2,21.1,17.2z"/>
	<g>
		<path class="st0" d="M23.5,25.4c-2.6,0-4.8-1.9-5.3-4.4H5.8c-0.5,2.5-2.7,4.4-5.3,4.4c-0.2,0-0.3,0-0.5,0c1,1.4,2.7,2.3,4.6,2.3
			c1.2,0,2.3-0.4,3.2-1c1.2,0.6,2.6,1,4,1c1.5,0,2.9-0.4,4.2-1.1c0.9,0.7,2.1,1.1,3.4,1.1c1.9,0,3.6-0.9,4.6-2.3
			C23.8,25.4,23.7,25.4,23.5,25.4z"/>
		<path class="st0" d="M16.7,29v7.3h1.5v-6.7C17.7,29.4,17.2,29.3,16.7,29z"/>
		<path class="st0" d="M5.8,29.5v6.7h1.5V29C6.9,29.2,6.4,29.4,5.8,29.5z"/>
	</g>
	<g>
		<path class="st0" d="M18.8,8.9c-2.8,0-5.1-2-5.6-4.7L12,5.4l-1.1-1.1c-0.5,2.7-2.8,4.7-5.6,4.7c-0.1,0-0.2,0-0.4,0
			c1,1.4,2.7,2.3,4.6,2.3h5.2v0c1.8-0.1,3.3-1,4.3-2.3C19,8.9,18.9,8.9,18.8,8.9z"/>
		<rect x="10.6" y="0.6" transform="matrix(0.7071 -0.7071 0.7071 0.7071 2.1555 9.0483)" class="st0" width="2.7" height="2.7"/>
	</g>
</g>
</svg>
