<?xml version="1.0" encoding="utf-8"?>
<!-- Generator: Adobe Illustrator 19.0.0, SVG Export Plug-In . SVG Version: 6.00 Build 0)  -->
<svg version="1.1" id="Layer_1" xmlns="http://www.w3.org/2000/svg" xmlns:xlink="http://www.w3.org/1999/xlink" x="0px" y="0px"
	 viewBox="-290 381 31 31" style="enable-background:new -290 381 31 31;" xml:space="preserve">
<style type="text/css">
	.st0{fill:#C59C63;}
</style>
<title>ic</title>
<desc>Created with Sketch.</desc>
<g id="_x31_-main">
	<g id="_x30_-t-btnHelp" transform="translate(-407.000000, -515.000000)">
		<g id="_x2192_-btnHelp">
			<g id="Group-4" transform="translate(197.000000, 510.000000)">
				<g id="ic-arrow_1_" transform="translate(205.000000, 0.000000)">
					<g id="ic" transform="translate(5.000000, 5.000000)">
						<path id="Combined-Shape" class="st0" d="M-278.5,403.5c6.1,0,11-4.9,11-11s-4.9-11-11-11s-11,4.9-11,11
							S-284.6,403.5-278.5,403.5z M-278.5,402.5c-5.5,0-10-4.5-10-10s4.5-10,10-10s10,4.5,10,10S-273,402.5-278.5,402.5z"/>
						<polygon id="ic-arrow" class="st0" points="-260.3,411.7 -260,412 -259.3,411.3 -259.5,411 -270.6,400 -271.3,400.7 						"/>
					</g>
				</g>
			</g>
		</g>
	</g>
</g>
</svg>
