<?xml version="1.0" encoding="utf-8"?>
<!-- Generator: Adobe Illustrator 19.0.0, SVG Export Plug-In . SVG Version: 6.00 Build 0)  -->
<svg version="1.1" id="Layer_1" xmlns="http://www.w3.org/2000/svg" xmlns:xlink="http://www.w3.org/1999/xlink" x="0px" y="0px"
	 viewBox="-295.6 392.1 17.1 9.8" style="enable-background:new -295.6 392.1 17.1 9.8;" xml:space="preserve">
<style type="text/css">
	.st0{enable-background:new    ;}
	.st1{fill:#FFFFFF;}
</style>
<g id="_x31_-main">
	<g id="_x31_-t-main" transform="translate(-607.000000, -70.000000)">
		<g id="I">
			<g id="header">
				<g id="Group-5" transform="translate(485.000000, 35.000000)">
					<g id="Group" transform="translate(89.000000, 29.000000)">
						<g class="st0">
							<path class="st1" d="M-246.8,401.4c-1.7,2.3-1.9,2.1-0.5,3.4c1.4,1.3,1.7,1.9,1.7,2c0,0,0.6,1-0.6,1l-2.3,0
								c-0.5,0.1-1.1-0.3-1.1-0.3c-0.9-0.6-1.7-2.1-2.3-1.9c0,0-0.6,0.2-0.6,1.6c0,0.3-0.1,0.5-0.1,0.5s-0.2,0.2-0.5,0.2h-1
								c-2.3,0.1-4.2-1.9-4.2-1.9s-2.2-2.2-4.1-6.7c-0.1-0.3,0-0.4,0-0.4s0.1-0.2,0.5-0.2l2.4,0c0.2,0,0.4,0.2,0.4,0.2
								s0.1,0.1,0.2,0.3c0.4,1,0.9,1.9,0.9,1.9c0.9,1.8,1.5,2.2,1.8,2c0,0,0.5-0.3,0.4-2.5c0-0.8-0.3-1.2-0.3-1.2
								c-0.2-0.3-0.6-0.4-0.8-0.4c-0.1,0,0.1-0.3,0.4-0.5c0.4-0.2,1.2-0.2,2.1-0.2c0.7,0,0.9,0.1,1.2,0.1c0.8,0.2,0.6,1,0.6,2.9
								c0,0.6-0.1,1.5,0.3,1.7c0.2,0.1,0.7,0,1.8-1.9c0,0,0.5-0.9,1-2c0.1-0.2,0.2-0.3,0.2-0.3s0.1-0.1,0.3-0.1l2.6,0
								c0.8-0.1,0.9,0.3,0.9,0.3C-245.3,399.2-245.7,400-246.8,401.4z"/>
						</g>
					</g>
				</g>
			</g>
		</g>
	</g>
</g>
</svg>
